<svg xmlns="http://www.w3.org/2000/svg" version="1.1" xmlns:xlink="http://www.w3.org/1999/xlink" xmlns:svgjs="http://svgjs.dev/svgjs" width="2000" height="2024" viewBox="0 0 2000 2024"><g transform="matrix(1,0,0,1,1.767868852458946,0.8194331983804659)"><svg viewBox="0 0 244 247" data-background-color="#000000" preserveAspectRatio="xMidYMid meet" height="2024" width="2000" xmlns="http://www.w3.org/2000/svg" xmlns:xlink="http://www.w3.org/1999/xlink"><g id="tight-bounds" transform="matrix(1,0,0,1,-0.21567999999999188,-0.09999999999999432)"><svg viewBox="0 0 244.43135999999998 247.2" height="247.2" width="244.43135999999998"><g><svg></svg></g><g><svg viewBox="0 0 244.43135999999998 247.2" height="247.2" width="244.43135999999998"><g transform="matrix(1,0,0,1,0,52.03881885957446)"><svg viewBox="0 0 244.43135999999998 143.12236228085106" height="143.12236228085106" width="244.43135999999998"><g><svg viewBox="0 0 244.43135999999998 143.12236228085106" height="143.12236228085106" width="244.43135999999998"><g><svg viewBox="0 0 244.43135999999998 143.12236228085106" height="143.12236228085106" width="244.43135999999998"><g><svg viewBox="0 0 244.43135999999998 143.12236228085106" height="143.12236228085106" width="244.43135999999998"><g id="textblocktransform"><svg viewBox="0 0 244.43135999999998 143.12236228085106" height="143.12236228085106" width="244.43135999999998" id="textblock"><g><svg viewBox="0 0 244.43135999999998 143.12236228085106" height="143.12236228085106" width="244.43135999999998"><g transform="matrix(1,0,0,1,0,0)"><svg width="244.43135999999998" viewBox="0.35 -34.4 58.75 34.4" height="143.12236228085106" data-palette-color="#dadee3"><path d="M25.95 0L21.15 0 18.85-8.75 7.3-8.75 5 0 0.35 0 10.3-34.4 16-34.4 25.95 0ZM13.1-30.7L8.25-12.4 17.9-12.4 13.1-30.7ZM56.45-34.4L59.1 0 54.65 0 53.6-15.55Q52.9-26 52.85-29.95L52.85-29.95 46.25-3.9 41.9-3.9 35-29.95Q35.05-25.6 34.45-15.45L34.45-15.45 33.45 0 29.05 0 31.7-34.4 37.75-34.4 44.15-8.95 50.3-34.4 56.45-34.4Z" opacity="1" transform="matrix(1,0,0,1,0,0)" fill="#dadee3" class="wordmark-text-0" data-fill-palette-color="primary" id="text-0"></path></svg></g></svg></g></svg></g></svg></g><g></g></svg></g></svg></g></svg></g><path d="M0 46.039L0 1 244.431 1 244.431 46.039 231.524 46.039 231.524 13.907 12.907 13.907 12.907 46.039 0 46.039M0 201.161L0 246.2 244.431 246.2 244.431 201.161 231.524 201.161 231.524 233.293 12.907 233.293 12.907 201.161 0 201.161" fill="#dadee3" stroke="transparent" data-fill-palette-color="tertiary"></path></svg></g><defs></defs></svg><rect width="244.43135999999998" height="247.2" fill="none" stroke="none" visibility="hidden"></rect></g></svg></g></svg>